<?xml version="1.0" encoding="UTF-8"?><svg id="a" xmlns="http://www.w3.org/2000/svg" viewBox="0 0 1900.87 655.05"><defs><style>.b{fill:#fff;}</style></defs><path class="b" d="M63.43,654.71c4.83-12.57,9.55-24.83,14.26-37.1,30.43-79.17,60.93-158.31,91.25-237.52,18.39-48.04,36.63-96.14,54.67-144.32,6.18-16.51,7.98-33.62,4.06-51.02-4.75-21.05-18.12-32.46-39.66-34.02-2.28-.17-4.58-.19-6.87-.19-54.34-.01-108.68,0-163.02-.01-15.05,0-21.69-9.71-16.22-23.68,.77-1.96,1.62-3.9,2.37-5.87C19.06,82.2,33.91,43.44,48.53,4.59,49.86,1.07,51.42,0,55.11,0c53.85,.12,107.7,.09,161.54,.09,431.6,0,863.2,0,1294.79,0,14.09,0,28.01,1.15,41.73,4.74,18.59,4.87,33.26,15.29,43.19,31.51,8.84,14.44,16.73,29.49,24.48,44.57,41.06,79.9,81.94,159.89,122.9,239.84,26.47,51.66,52.97,103.3,79.47,154.94,22.63,44.1,45.31,88.18,67.88,132.31,4.59,8.99,9.42,18,9.77,28.44,.27,8.2-3.22,13.68-11.17,15.65-6.9,1.71-14.15,2.77-21.24,2.78-177.26,.15-354.51,.12-531.77,.08-4.24,0-8.5-.28-12.71-.78-6.85-.8-9.2-3.71-8.43-10.51,.33-2.87,1.16-5.75,2.2-8.46,20.55-53.5,41.2-106.97,61.67-160.5,1.3-3.39,3.42-3.23,6.06-3.23,47.46,.02,94.93,.03,142.39-.01,3.42,0,6.86-.25,10.25-.67,12.13-1.5,19.11-10.93,16.71-22.94-.72-3.62-2.04-7.28-3.83-10.51-30.74-55.29-61.54-110.53-92.44-165.73-16.33-29.16-32.81-58.23-49.33-87.28-7.12-12.52-15.32-24.42-29.59-29.37-7.57-2.62-15.9-4.25-23.89-4.26-251.4-.22-502.8-.21-754.2-.13-25.22,0-48.91,5.57-69.13,21.77-15.8,12.66-27.03,28.93-34.73,47.32-12.38,29.59-23.98,59.51-35.51,89.45-40.75,105.9-81.29,211.88-122.07,317.78-2.14,5.56-5.11,10.99-8.63,15.79-6.72,9.13-16.59,12.28-27.54,12.28-79.38,.03-158.76,.02-238.14,0-.61,0-1.22-.13-2.36-.26Z"/><path class="b" d="M901.39,178.3c-1.84,6.61-4.36,12.75-5.15,19.1-1.74,14.02,2.88,21.98,15.82,27.57,24.21,10.47,48.68,20.33,72.86,30.87,47.48,20.69,94.91,41.48,142.18,62.63,20.2,9.03,35.76,23.2,44.06,44.34,9.52,24.24,9.03,48.61-.1,72.66-19.36,50.97-38.99,101.83-58.86,152.6-8.71,22.26-25.48,37.57-45.58,49.55-20.58,12.27-43.05,17.36-66.84,17.36-203.29,0-406.57,0-609.86,0-14.67,0-18.25-4.72-13.13-18.29,19.68-52.08,39.58-104.08,59.23-156.17,1.24-3.28,3.24-2.97,5.67-2.96,46.32,.06,92.64,.13,138.96,.14,90.35,.02,180.7,.04,271.05-.04,10.93,0,21.98,.23,32.77-1.21,9.99-1.34,16.42-8.33,19.25-18.07,2.31-7.94-1.05-14.69-9.4-18.73-20.25-9.79-40.54-19.5-60.9-29.07-65.05-30.59-130.19-61-195.17-91.73-9.65-4.57-19.36-9.57-27.82-15.99-17.1-12.98-22.43-31.1-17.33-51.55,5.94-23.85,12.95-47.45,23.55-69.79,1.08-2.28,2.18-3.44,5.03-3.44,92.97,.1,185.94,.09,278.9,.1,.32,0,.65,.08,.8,.1Z"/><path class="b" d="M1095.06,654.67c6.46-4.67,12.29-8.7,17.91-12.99,19.79-15.09,34.18-33.72,42.38-57.78,14.12-41.44,29.99-82.28,44.62-123.55,5.64-15.9,11.27-32.01,14.51-48.5,6.59-33.58-3.29-63.21-25.45-88.92-11.11-12.89-24.63-22.75-39.37-31.1-12.76-7.23-17.13-16.7-12.71-30.75,4.44-14.11,10.23-27.81,15.44-41.68,4.64-12.35,9.35-24.66,13.9-37.04,1.07-2.91,2.36-4.29,5.89-4.28,52.54,.15,105.08,0,157.62,.18,11.79,.04,23.76,.85,33.41,8.8,4.2,3.46,8.01,7.79,10.84,12.43,14.32,23.55,28.23,47.34,42.38,71,1.54,2.57,1.76,4.73,.64,7.61-43.64,113.01-87.18,226.05-130.72,339.09-4.38,11.38-8.79,22.76-13.01,34.2-.9,2.44-1.87,3.67-4.76,3.67-56.8-.09-113.59-.06-170.39-.08-.76,0-1.52-.14-3.11-.3Z"/></svg>